<svg width="66" height="13" viewBox="0 0 66 13" fill="none" xmlns="http://www.w3.org/2000/svg">
<path d="M6.22727 12.5455C4.54545 12.5455 3.10227 11.9432 1.89773 10.7386C0.693182 9.53409 0.0909095 8.09091 0.0909095 6.40909C0.0909095 4.72727 0.693182 3.28409 1.89773 2.07955C3.10227 0.875 4.54545 0.272727 6.22727 0.272727C7.90909 0.272727 9.35227 0.875 10.5568 2.07955C11.7614 3.28409 12.3636 4.72727 12.3636 6.40909C12.3636 7.52273 12.0795 8.54545 11.5114 9.47727C10.9659 10.4091 10.2273 11.1591 9.29546 11.7273C8.38636 12.2727 7.36364 12.5455 6.22727 12.5455ZM32.6648 12.5455C30.983 12.5455 29.5398 11.9432 28.3352 10.7386C27.1307 9.53409 26.5284 8.09091 26.5284 6.40909C26.5284 4.72727 27.1307 3.28409 28.3352 2.07955C29.5398 0.875 30.983 0.272727 32.6648 0.272727C34.3466 0.272727 35.7898 0.875 36.9943 2.07955C38.1989 3.28409 38.8011 4.72727 38.8011 6.40909C38.8011 7.52273 38.517 8.54545 37.9489 9.47727C37.4034 10.4091 36.6648 11.1591 35.733 11.7273C34.8239 12.2727 33.8011 12.5455 32.6648 12.5455ZM59.1023 12.5455C57.4205 12.5455 55.9773 11.9432 54.7727 10.7386C53.5682 9.53409 52.9659 8.09091 52.9659 6.40909C52.9659 4.72727 53.5682 3.28409 54.7727 2.07955C55.9773 0.875 57.4205 0.272727 59.1023 0.272727C60.7841 0.272727 62.2273 0.875 63.4318 2.07955C64.6364 3.28409 65.2386 4.72727 65.2386 6.40909C65.2386 7.52273 64.9545 8.54545 64.3864 9.47727C63.8409 10.4091 63.1023 11.1591 62.1705 11.7273C61.2614 12.2727 60.2386 12.5455 59.1023 12.5455Z" fill="#F5F5F5"/>
</svg>
